<svg xmlns="http://www.w3.org/2000/svg" viewBox="1310.626 423.062 243.764 247.584" fill="none">
  <path d="M1369.832,642.599c-0.619,0-1.319-0.08-1.939,0.02l-0.01-0.04l2.25-7.75l-4,1.12l-0.25-5.12l-7.631-0.25
				l-6.119-1.88l-2.381,0.38l-0.75,2.25l-5.619-5.5l1-0.75l-2.381-3.75l-3.369-0.25v1l-1,1.62l1.75,2.88l-6.5,0.87l-2.25,1.5
				l-1.5-0.25l-2,0.88l-0.75-2.25l-0.75-6.5l-5.5-0.25l-0.5-2.25l-1.5-0.5l-0.5-3l7-1.5l1.25-1l-0.5-7.75l-4.5-8.5l8.5-7.75
				l4.75-1.5l3.5-3.25l-2.5-7.25l-1.5-11l7,1.25l0.75-5.5l6.75,0.5l1.26-5l1.26-9.32l2.2-0.6v-11.56l1.97-1.1l-1.149-6.35
				l7.449-1.37l6.9-3.62l4.44-3.56l2.189-0.82l1.1,6.35l1.921-0.54l2.239,3.56l6.03-2.19l1.15,4.93l12.109-5.21l1.37-3.89h2.79
				l-0.54,5.26h3.01l3.021-3.56l3.88-2.52l-1.64-6.36l3.01-1.64l-2.46-6.63l0.27-5.48l2.471-2.52l-0.551-4.38l-1.92-1.1l3.021-6.08
				l7.45,1.92l0.55-3.29l-6.91-2.8l1.92-4.11l3.34-1.91l-5.26-5.81l-2.19,1.92l-3.01-3.57l1.91-5.8l3.84-0.55l6.36,5.26l6.08-4.44
				l1.09,1.92l6.91-1.92l0.819-4.71l2.74-1.1l2.25,3.07l8.54-0.55l1.33-2.45l0.04-0.07l8.28-2.19l0.27,3.56l15.181-2.74l1.1-6.08
				h9.37l3.01,3.07l4.99-2.8l1.92-5.75l-3.84-0.27l-3.62-4.99l-1.641-4.16l-0.159-0.62l4.79-1.25l-0.25-2.25l2.369-0.75l0.5,4.13
				l6.381-3.63l4.619-0.5l3.75,9.25l1.131,6.25l-1.131,0.38l-1.75-1.63l-3.369,5.75v2.38l-6.5,2.25l-1.381,1.5l-5.119,2.62l1.5,8.25
				l-1.75,2.13l0.75,6.12l-1.25,0.88l1.869,2.87l-0.119,3.88l-1,1l2.75,7.87l-0.75,1l3.619,7.88l-0.25,1.62l4.631,2.13l2.119-6.5
				l4.75,2.12l-1.75,5.5l0.75,1.5l4.25-0.37l1.381-1.5l1.75,0.62l2.869-1.75l-2.369-2.5l-1.75-0.62l0.25-1.88l2.75-0.5l0.369,1.5
				l3.5,1l0.25-2.37l-1.619-1l-1.75-8.25l-4.131,0.37l-1.119-4l6.5-4.87l2.369,3.37l-1.5,4.88l6.131-5.25l0.25,4.12l3.619,5.38
				l7-3.13l-2.119-4.12l3.619-1.88l-1-2.25l6,1.88l2.131-4l2.25,5.37l-6.75,3.38l0.75,2.87l-0.5,4.13l2.619,1.12l-0.25,2.25
				l-10.619,4.13l-2.131,6.87l3,2l-4.75,10.38l1.25,1.87l-1.119,6.75l-6-1.75l-1.5,6.75l1,6.5l-2.381,3.5l-8.119,0.25l-2.5,1.13
				l-1.5-3l-6.75-0.25l-8.75-2.13l-5.131,4.25l-1.25,7.13l-4.5-1.13l-3.869,1.88l-1.881,7.75l3.5,2.5l1.381,4.62l-0.25,6l10.75,3.13
				l1,5.62l9.25,6.38l11.369-4.5l1.75,4.87l2.631-0.12l1.75,7.12l-7.25,3.63l-3,5.62l-0.881,6l-7.119-0.12l-6.5-1l-1.75,1.62
				l0.619,3.5l-5.869-1.62v-2.13l-6.5-2.12l-0.75,7.5l0.869,3.62l-2.75,0.5l-2.75,3.63v2.25l-5,0.75l-0.119,1.62l-5,0.5l-2.131,7.5
				l1.631,0.13l1.119,5.62l-6.5,1.25l-0.619,2l-3,1.13l0.25,6.98l-2.19,4.12l-5.44-1.73l-0.92,2.82l-0.01,0.02
				c0-0.01-0.01-0.01-0.01-0.01l-0.82-0.08c-1.149,0.44-2.3,1.48-3.31,2.17c-2.03,0.4-3.51-0.38-4.681-2.01l-0.51-0.7
				c-0.27-0.84-0.069-2.32-0.649-3.03l-0.66-0.25l-0.72,0.22c-0.65,0.87-1.851,2.68-3.221,1.98c-0.359-0.19-2.39-0.56-2.39-0.56
				c-0.3-0.48-0.46-1.04-0.74-1.58c-1.399-0.96-3.149-1.06-4.56-1.91l-0.38-0.22c-1.671-1.03-2.69-2.76-4.23-3.99
				c-4.08-3.24-1.38-3.76-3.44-6.07l-0.35-0.32l-0.27-0.23c-0.23-0.2-0.42-0.4-0.57-0.67l-0.22-0.37c-2.03-3.75-2-3.33-0.5-7.24
				c0.06-0.16,0.1-0.3,0.109-0.43c-0.71-0.7-2.35-1.37-3.239-1.72c-0.671,0.06-2.091,0.66-2.711,1.05
				c-0.079,0.09-0.17,0.19-0.25,0.29l-0.279,0.37c-0.33,0.42-0.67,0.84-1.12,1.14l-0.36,0.24c-0.109,0.07-0.2,0.11-0.29,0.17
				c-0.25,0.3-0.45,0.6-0.64,0.88l-0.62,0.99c-1.61,2.48-2.21,2.65-4.96,2.98c-0.22,0.02-0.53-0.03-0.78-0.07
				c-2.14,0.3-1.81,1.23-5.46,1.23c-0.109,0-0.3-0.02-0.52-0.06l-0.5-0.1c-0.15-0.03-0.3-0.08-0.42-0.1
				c-1.73,0.15-1.44,3.16-2.471,4.42l-0.239,0.23c-1.4,0.95-2.41,0.77-3.471-0.29l-0.569-0.61l-0.54-0.55
				c-3.41-3.42-10.16,1.7-12.62-1.3l-0.19-0.34c-0.43-1.23,0.21-1.85,0.101-2.88
				C1372.713,641.759,1370.812,642.599,1369.832,642.599z" fill="#C12838" />
</svg>
